<svg height="801" viewBox="0 0 589 801" width="589" xmlns="http://www.w3.org/2000/svg"><g fill="none" fill-rule="evenodd" transform=""><path d="m0 0h589v801h-589z" fill="#f2093d"/><path d="m498 101c8.284271 0 15-6.7157288 15-15s-6.715729-15-15-15" fill="#f2093d"/><path d="m137 66 .14 64h-12.14v-27.03h-27v27.03h-12v-64h12v25h27v-25z" fill="#e20a3a"/><path d="m86 91h12v39h-12z" fill="#000"/><path d="m125 66h12v64h-12z" fill="#fff"/><path d="m477 717c12.702549 0 23-10.521308 23-23.5s-10.297451-23.5-23-23.5" fill="#fff" transform="matrix(-1 0 0 -1 977 1387)"/><path d="m503 709c8.284271 0 15-6.715729 15-15s-6.715729-15-15-15" fill="#000"/></g></svg>