<svg width="589" height="801" viewBox="0 0 589 801" fill="none" xmlns="http://www.w3.org/2000/svg">
<rect width="589" height="801" fill="#0C0263"/>
<ellipse cx="490.372" cy="104.085" rx="14.3526" ry="14.4625" transform="rotate(-90 490.372 104.085)" fill="#FFB8A9"/>
<path fill-rule="evenodd" clip-rule="evenodd" d="M490.368 118.437C482.623 118.437 476.344 112.011 476.344 104.084C476.344 96.1576 482.623 89.7317 490.368 89.7317" fill="#FA4B6A"/>
<ellipse cx="68.195" cy="682.358" rx="15.0011" ry="15.1159" transform="rotate(180 68.195 682.358)" fill="#372FFF"/>
<path d="M68.195 667.242C59.9101 667.242 53.1939 674.01 53.1939 682.358C53.1939 682.358 56.2597 687.197 68.195 687.197C80.1302 687.197 83.196 682.358 83.196 682.358C83.196 674.01 76.4798 667.242 68.195 667.242Z" fill="black"/>
<ellipse cx="68.195" cy="641.595" rx="15.0011" ry="15.1159" transform="rotate(180 68.195 641.595)" fill="#372FFF"/>
</svg>
